<svg xmlns="http://www.w3.org/2000/svg" viewBox="0 0 64 64">
  <rect width="64" height="64" rx="16" fill="#25212a"/>
  <path d="M20 42c3.6 3.7 8.5 5.6 14.7 5.6 7.2 0 12.6-3.6 12.6-9.6 0-5.2-3.9-7.5-10.8-9.2l-3.9-1c-3.5-.9-5.2-1.8-5.2-3.8 0-2.2 2.2-3.6 5.7-3.6 3.8 0 7.1 1.2 10 3.7l3.2-5.2c-3.4-3-7.8-4.5-13-4.5-7 0-12.1 3.8-12.1 9.5 0 5 3.4 7.6 10.3 9.3l4.2 1c3.7.9 5.3 1.9 5.3 4 0 2.3-2.3 3.6-6.2 3.6-4.4 0-8.1-1.5-11.2-4.5L20 42Z" fill="#fffaf4"/>
  <path d="M16 48c5 4.6 11.1 6.9 18.6 6.9 10.6 0 18.3-5.8 18.3-15.3 0-7.4-4.6-11.4-13.4-13.8" fill="none" stroke="#b85a43" stroke-width="3" stroke-linecap="round"/>
</svg>
